/* XPM */
static char * close_active_xpm[] = {
"16 22 4 1",
"       c None",
".      c #FFFFFF s active_text_color",
"+      c #CCCCCC s active_text_color",
"@      c #D8D8D8 s active_color_1",
"                ",
"                ",
"                ",
"                ",
"                ",
" @@@@@@@@@@@@@@ ",
" @@@@@@@@@@@@@@ ",
" @@@.+@@@@+.@@@ ",
" @@@+.+@@+.+@@@ ",
" @@@@+.++.+@@@@ ",
" @@@@@+..+@@@@@ ",
" @@@@@+..+@@@@@ ",
" @@@@+.++.+@@@@ ",
" @@@+.+@@+.+@@@ ",
" @@@.+@@@@+.@@@ ",
" @@@@@@@@@@@@@@ ",
" @@@@@@@@@@@@@@ ",
"                ",
"                ",
"                ",
"                ",
"                "};
