/* XPM */
static char * hide_active_xpm[] = {
"16 22 3 1",
"       c None",
".      c #FFFFFF s inactive_text_color",
"@      c #D8D8D8 s inactive_color_1",
"                ",
"                ",
"                ",
"                ",
"                ",
" @@@@@@@@@@@@@@ ",
" @@@@@@@@@@@@@@ ",
" @@@@@@@@@@@@@@ ",
" @@@@@@@@@@@@@@ ",
" @@@@@@@@@@@@@@ ",
" @@@@@@@@@@@@@@ ",
" @@@@@@@@@@@@@@ ",
" @@@........@@@ ",
" @@@........@@@ ",
" @@@........@@@ ",
" @@@@@@@@@@@@@@ ",
" @@@@@@@@@@@@@@ ",
"                ",
"                ",
"                ",
"                ",
"                "};

