/* XPM */
static char * maximize_pressed_xpm[] = {
"16 22 3 1",
"       c None",
".      c #FFFFFF s active_text_color",
"@      c #D8D8D8 s active_color_1",
"                ",
"                ",
"                ",
"                ",
"                ",
" @@@@@@@@@@@@@@ ",
" @@@@@@@@@@@@@@ ",
" @@@........@@@ ",
" @@@........@@@ ",
" @@@........@@@ ",
" @@@.@@@@@@.@@@ ",
" @@@.@@@@@@.@@@ ",
" @@@.@@@@@@.@@@ ",
" @@@.@@@@@@.@@@ ",
" @@@........@@@ ",
" @@@@@@@@@@@@@@ ",
" @@@@@@@@@@@@@@ ",
"                ",
"                ",
"                ",
"                ",
"                "};

