/* XPM */
static char * title_middle_active_xpm[] = {
"5 22 4 1",
"       c None",
"+      c #FFFFFF s active_hilight_1",
"@      c #D8D8D8 s active_color_1",
"#      c #B2B2B2 s active_shadow_1",
"#####",
"+++++",
"@@@@@",
"@@@@@",
"@@@@@",
"@@@@@",
"@@@@@",
"@@@@@",
"@@@@@",
"@@@@@",
"@@@@@",
"@@@@@",
"@@@@@",
"@@@@@",
"@@@@@",
"@@@@@",
"@@@@@",
"@@@@@",
"@@@@@",
"@@@@@",
"+++++",
"#####"};
