/* XPM */
static char * top_right_inactive_xpm[] = {
"5 22 4 1",
" 	c None",
"+	c #FFFFFF s inactive_hilight_1",
"@	c #D8D8D8 s inactive_color_1",
"#	c #B2B2B2 s inactive_shadow_1",
"     ",
"##   ",
"++#  ",
"@@+# ",
"@@+# ",
"@@@+#",
"@@@+#",
"@@@+#",
"@@@+#",
"@@@+#",
"@@@+#",
"@@@+#",
"@@@+#",
"@@@+#",
"@@@+#",
"@@@+#",
"@@@+#",
"@@@+#",
"@@@+#",
"@@@+#",
"@@@+#",
"@@@+#"};
